<svg xmlns="http://www.w3.org/2000/svg" xmlns:xlink="http://www.w3.org/1999/xlink" width="624.044" height="406.341" viewBox="0 0 624.044 406.341">
  <defs>
    <linearGradient id="linear-gradient" x1="-0.233" y1="-0.124" x2="1.015" y2="0.764" gradientUnits="objectBoundingBox">
      <stop offset="0" stop-color="#03c1f3"/>
      <stop offset="1" stop-color="#0f63ac"/>
    </linearGradient>
    <linearGradient id="linear-gradient-2" x1="0.531" y1="0.349" x2="0.5" y2="1" xlink:href="#linear-gradient"/>
    <filter id="Polygon_3" x="531.314" y="166.074" width="92.729" height="89.189" filterUnits="userSpaceOnUse">
      <feOffset dy="3" input="SourceAlpha"/>
      <feGaussianBlur stdDeviation="3" result="blur"/>
      <feFlood flood-opacity="0.161"/>
      <feComposite operator="in" in2="blur"/>
      <feComposite in="SourceGraphic"/>
    </filter>
    <linearGradient id="linear-gradient-3" x1="1" y1="-0.11" x2="0.272" y2="1" gradientUnits="objectBoundingBox">
      <stop offset="0" stop-color="#0f63ac"/>
      <stop offset="1" stop-color="#03c1f3"/>
    </linearGradient>
    <filter id="Path_197641" x="19.823" y="43.863" width="77.697" height="69.7" filterUnits="userSpaceOnUse">
      <feOffset dy="3" input="SourceAlpha"/>
      <feGaussianBlur stdDeviation="3" result="blur-2"/>
      <feFlood flood-opacity="0.161"/>
      <feComposite operator="in" in2="blur-2"/>
      <feComposite in="SourceGraphic"/>
    </filter>
    <filter id="Path_197642" x="29.602" y="52.695" width="57.3" height="52.035" filterUnits="userSpaceOnUse">
      <feOffset dy="3" input="SourceAlpha"/>
      <feGaussianBlur stdDeviation="3" result="blur-3"/>
      <feFlood flood-opacity="0.161"/>
      <feComposite operator="in" in2="blur-3"/>
      <feComposite in="SourceGraphic"/>
    </filter>
    <filter id="Path_197641-2" x="10.412" y="259.863" width="110.742" height="98.318" filterUnits="userSpaceOnUse">
      <feOffset dy="3" input="SourceAlpha"/>
      <feGaussianBlur stdDeviation="3" result="blur-4"/>
      <feFlood flood-opacity="0.161"/>
      <feComposite operator="in" in2="blur-4"/>
      <feComposite in="SourceGraphic"/>
    </filter>
    <filter id="Path_197642-2" x="25.604" y="273.584" width="79.054" height="70.874" filterUnits="userSpaceOnUse">
      <feOffset dy="3" input="SourceAlpha"/>
      <feGaussianBlur stdDeviation="3" result="blur-5"/>
      <feFlood flood-opacity="0.161"/>
      <feComposite operator="in" in2="blur-5"/>
      <feComposite in="SourceGraphic"/>
    </filter>
  </defs>
  <g id="Group_121919" data-name="Group 121919" transform="translate(-651.5 -161.369)">
    <g id="Group_121843" data-name="Group 121843" transform="translate(651.5 161.369)">
      <g id="Group_121778" data-name="Group 121778" transform="translate(6.757)">
        <g id="Group_121838" data-name="Group 121838" transform="translate(0 0)">
          <g id="Group_121776" data-name="Group 121776" style="mix-blend-mode: multiply;isolation: isolate">
            <g id="Group_121775" data-name="Group 121775">
              <g id="Group_121839" data-name="Group 121839" opacity="0.572">
                <path id="Path_197511" data-name="Path 197511" d="M605.059,120.959c-37.017-60.718-109.7-35.911-171.119-30.485C313.532,101.108,231.887-58.858,105.462,23.815c-139.98,91.538-140.735,257.878-1.533,321.79C493.467,524.443,638.663,176.081,605.059,120.959" transform="translate(0 0)" fill="url(#linear-gradient)"/>
              </g>
            </g>
          </g>
        </g>
      </g>
      <rect id="Rectangle_23280" data-name="Rectangle 23280" width="609.743" height="396.208" transform="translate(0 10.133)" fill="none" opacity="0.35"/>
      <g id="freepik--background-complete--inject-113" transform="translate(13.047 8.655)">
        <rect id="Rectangle_22986" data-name="Rectangle 22986" width="583.649" height="0.292" transform="translate(0 344.972)" fill="#ebebeb"/>
        <rect id="Rectangle_22987" data-name="Rectangle 22987" width="38.661" height="0.292" transform="translate(486.507 363.754)" fill="#ebebeb"/>
        <rect id="Rectangle_22988" data-name="Rectangle 22988" width="10.144" height="0.292" transform="translate(376.489 366.929)" fill="#ebebeb"/>
        <rect id="Rectangle_22989" data-name="Rectangle 22989" width="22.4" height="0.292" transform="translate(462.939 352.921)" fill="#ebebeb"/>
        <rect id="Rectangle_22990" data-name="Rectangle 22990" width="50.416" height="0.292" transform="translate(61.236 354.882)" fill="#ebebeb"/>
        <rect id="Rectangle_22991" data-name="Rectangle 22991" width="7.389" height="0.292" transform="translate(122.053 354.882)" fill="#ebebeb"/>
        <rect id="Rectangle_22992" data-name="Rectangle 22992" width="109.352" height="0.292" transform="translate(153.465 359.808)" fill="#ebebeb"/>
        <path id="Path_197170" data-name="Path 197170" d="M506.472,405.648V348.076H479.9V294.7h-3.747V325.3H465.932V316.84H447.547v-29.3h-3.409V251.728h-2.731v35.159H434.94v52.085H422.672V286.887H400.54v44.042H377.3V277.548h-3.747v30.595H363.326V299.68H344.941v-29.3h-3.409v-35.8H338.8v35.159h-6.467v52.073H320.078V269.739H297.934V320.12H283v-29.3H279.6V255.008h-2.72v35.159H270.4v52.085H258.141V290.167H236v52.085h-10.9v5.825H206.01V294.7h-3.747V325.3H192.037V316.84H173.652v-29.3h-3.409V251.728h-2.731v35.159h-5.93v-2.93H139.439v2.93H127.17v-2.93H120.7V248.8h-2.72V284.61h-3.409V313.9h-18.4v8.463H85.965V291.766H82.218v53.381H55.65v60.5Z" transform="translate(9.31 -62.158)" fill="#dedede"/>
        <path id="Path_197171" data-name="Path 197171" d="M130.716,129.1a5.65,5.65,0,0,0-7.261-5.4,11.918,11.918,0,0,0-11.813-13.669,11.371,11.371,0,0,0-2.195.21,10.436,10.436,0,0,0-19.354,5.229h-.175a9.619,9.619,0,0,0,0,19.237h35.311a5.626,5.626,0,0,0,5.486-5.6Z" transform="translate(6.144 -63.715)" fill="#f0f0f0"/>
        <path id="Path_197172" data-name="Path 197172" d="M435,196.026a5.65,5.65,0,0,0-7.261-5.4,11.918,11.918,0,0,0-11.813-13.669,12.5,12.5,0,0,0-2.206.2,10.436,10.436,0,0,0-19.319,5.323h-.175a9.619,9.619,0,0,0,0,19.237h35.311A5.626,5.626,0,0,0,435,196.026Z" transform="translate(64.345 -72.596)" fill="#f0f0f0"/>
        <path id="Path_197173" data-name="Path 197173" d="M284.71,124.667a8.895,8.895,0,0,1,11.486-8.545,19.338,19.338,0,0,1-.2-2.743,18.864,18.864,0,0,1,22.365-18.56,16.506,16.506,0,0,1,30.618,8.346h.268a15.216,15.216,0,1,1,0,30.431H293.383A8.918,8.918,0,0,1,284.71,124.667Z" transform="translate(47.631 -86.87)" fill="#d0d0d0"/>
        <path id="Path_197174" data-name="Path 197174" d="M143.48,209A10.727,10.727,0,0,1,157.3,198.715a21.851,21.851,0,0,1-.245-3.292,22.739,22.739,0,0,1,22.739-22.739,23.476,23.476,0,0,1,4.179.385,19.844,19.844,0,0,1,36.852,10.05h.3a18.315,18.315,0,1,1,0,36.618H153.892A10.727,10.727,0,0,1,143.48,209Z" transform="translate(24.004 -74.059)" fill="#f0f0f0"/>
        <path id="Path_197175" data-name="Path 197175" d="M188.59,142.278a3.5,3.5,0,0,0-3.5-3.5,3.163,3.163,0,0,0-1,.152,8.329,8.329,0,0,0,.082-1.086,7.424,7.424,0,0,0-7.424-7.424,7.531,7.531,0,0,0-1.366.128,6.49,6.49,0,0,0-12.035,3.28h-.105a5.977,5.977,0,1,0,0,11.953h21.957a3.5,3.5,0,0,0,3.4-3.5Z" transform="translate(19.02 -60)" fill="#f0f0f0"/>
        <path id="Path_197176" data-name="Path 197176" d="M74.72,233.478a3.5,3.5,0,0,1,3.5-3.5,3.676,3.676,0,0,1,1.016.14,6.455,6.455,0,0,1-.082-1.074,7.424,7.424,0,0,1,7.424-7.424,7.527,7.527,0,0,1,1.366.128,6.49,6.49,0,0,1,12.035,3.28h.105a5.977,5.977,0,0,1,0,11.953H78.129A3.5,3.5,0,0,1,74.72,233.478Z" transform="translate(12.501 -64.827)" fill="#f0f0f0"/>
        <path id="Path_197177" data-name="Path 197177" d="M356.21,243.278a3.5,3.5,0,0,1,3.5-3.5,3.676,3.676,0,0,1,1.016.14,6.457,6.457,0,0,1-.082-1.074,7.424,7.424,0,0,1,7.424-7.424,7.528,7.528,0,0,1,1.366.128,6.49,6.49,0,0,1,12.035,3.28h.105a5.977,5.977,0,0,1,0,11.953H359.618A3.5,3.5,0,0,1,356.21,243.278Z" transform="translate(59.593 -63.187)" fill="#f0f0f0"/>
      </g>
      <g id="freepik--Shadow--inject-113" transform="translate(65.029 367.767)">
        <ellipse id="freepik--path--inject-113" cx="226.327" cy="13.214" rx="226.327" ry="13.214" transform="translate(0)" fill="#031728" opacity="0.762"/>
      </g>
      <g id="freepik--Arrow--inject-113" transform="translate(72.218 12.975)">
        <path id="Path_197178" data-name="Path 197178" d="M445.365,126.126l-49.9,75.979-2.194,3.35-4.342,2.008L234.469,279.24l15.257,52.283,3.49,11.953-12.093,9.992-104.2,101.263H50.69l155.9-129.477-9.443-51.408-2.568-14,12.07-5.556L371.265,178.5l53.614-66.326L410.5,109.328,455.707,90.57l-2.323,48.9Z" transform="translate(-50.69 -90.57)" fill="#263238"/>
        <path id="Path_197179" data-name="Path 197179" d="M445.365,126.126l-49.9,75.979-2.194,3.35-4.342,2.008L234.469,279.24l15.257,52.283,3.49,11.953-12.093,9.992-104.2,101.263H50.69l155.9-129.477-9.443-51.408-2.568-14,12.07-5.556L371.265,178.5l53.614-66.326L410.5,109.328,455.707,90.57l-2.323,48.9Z" transform="translate(-50.69 -90.57)" fill="#03c1f3" opacity="0.371"/>
      </g>
      <g id="freepik--character-2--inject-113" transform="translate(248.059 10.423)">
        <rect id="Rectangle_22993" data-name="Rectangle 22993" width="85.586" height="21.782" rx="1.26" transform="translate(108.629 361.988)" fill="#ffc72f"/>
        <rect id="Rectangle_22994" data-name="Rectangle 22994" width="3.385" height="19.459" transform="translate(112.458 363.249)" opacity="0.2"/>
        <rect id="Rectangle_22995" data-name="Rectangle 22995" width="2.463" height="19.459" transform="translate(121.072 363.155)" opacity="0.2"/>
        <rect id="Rectangle_22996" data-name="Rectangle 22996" width="1.237" height="19.459" transform="translate(129.383 363.249)" opacity="0.2"/>
        <rect id="Rectangle_22997" data-name="Rectangle 22997" width="0.619" height="19.459" transform="translate(139.551 363.155)" opacity="0.2"/>
        <rect id="Rectangle_22998" data-name="Rectangle 22998" width="3.385" height="19.459" transform="translate(190.386 382.614) rotate(180)" opacity="0.2"/>
        <rect id="Rectangle_22999" data-name="Rectangle 22999" width="2.463" height="19.459" transform="translate(181.772 382.708) rotate(180)" opacity="0.2"/>
        <rect id="Rectangle_23000" data-name="Rectangle 23000" width="1.226" height="19.459" transform="translate(173.461 382.614) rotate(180)" opacity="0.2"/>
        <rect id="Rectangle_23001" data-name="Rectangle 23001" width="0.619" height="19.459" transform="translate(163.293 382.708) rotate(180)" opacity="0.2"/>
        <rect id="Rectangle_23002" data-name="Rectangle 23002" width="0.303" height="19.459" transform="translate(151.574 382.708) rotate(180)" opacity="0.2"/>
        <path id="Path_197180" data-name="Path 197180" d="M377.483,401.624H296.647a1.027,1.027,0,0,1-1.027-1.027h0a1.039,1.039,0,0,1,1.027-1.027h80.835a1.027,1.027,0,0,1,1.027,1.027h0a1.016,1.016,0,0,1-1.027,1.027Z" transform="translate(-185.555 -36.321)" fill="#fff" opacity="0.2"/>
        <rect id="Rectangle_23003" data-name="Rectangle 23003" width="85.586" height="21.782" rx="1.26" transform="translate(110.963 340.265)" fill="#ffc72f"/>
        <rect id="Rectangle_23004" data-name="Rectangle 23004" width="3.385" height="19.459" transform="translate(114.792 341.525)" opacity="0.2"/>
        <rect id="Rectangle_23005" data-name="Rectangle 23005" width="2.463" height="19.459" transform="translate(123.418 341.432)" opacity="0.2"/>
        <rect id="Rectangle_23006" data-name="Rectangle 23006" width="1.226" height="19.459" transform="translate(131.73 341.525)" opacity="0.2"/>
        <rect id="Rectangle_23007" data-name="Rectangle 23007" width="0.619" height="19.459" transform="translate(141.885 341.432)" opacity="0.2"/>
        <rect id="Rectangle_23008" data-name="Rectangle 23008" width="3.385" height="19.459" transform="translate(192.733 360.879) rotate(180)" opacity="0.2"/>
        <rect id="Rectangle_23009" data-name="Rectangle 23009" width="2.463" height="19.459" transform="translate(184.106 360.973) rotate(180)" opacity="0.2"/>
        <rect id="Rectangle_23010" data-name="Rectangle 23010" width="1.237" height="19.459" transform="translate(175.795 360.879) rotate(180)" opacity="0.2"/>
        <rect id="Rectangle_23011" data-name="Rectangle 23011" width="0.619" height="19.459" transform="translate(165.628 360.973) rotate(180)" opacity="0.2"/>
        <rect id="Rectangle_23012" data-name="Rectangle 23012" width="0.303" height="19.459" transform="translate(153.908 360.973) rotate(180)" opacity="0.2"/>
        <path id="Path_197181" data-name="Path 197181" d="M379.483,383.014H298.647a1.039,1.039,0,0,1-1.027-1.027h0a1.027,1.027,0,0,1,1.027-1.027h80.835a1.016,1.016,0,0,1,1.027,1.027h0A1.027,1.027,0,0,1,379.483,383.014Z" transform="translate(-185.221 -39.435)" fill="#fff" opacity="0.2"/>
        <rect id="Rectangle_23013" data-name="Rectangle 23013" width="85.586" height="21.782" rx="1.26" transform="translate(110.963 318.541)" fill="#ffc72f"/>
        <rect id="Rectangle_23014" data-name="Rectangle 23014" width="3.385" height="19.459" transform="translate(114.792 319.79)" opacity="0.2"/>
        <rect id="Rectangle_23015" data-name="Rectangle 23015" width="2.463" height="19.459" transform="translate(123.418 319.697)" opacity="0.2"/>
        <rect id="Rectangle_23016" data-name="Rectangle 23016" width="1.226" height="19.459" transform="translate(131.73 319.79)" opacity="0.2"/>
        <rect id="Rectangle_23017" data-name="Rectangle 23017" width="0.619" height="19.459" transform="translate(141.885 319.697)" opacity="0.2"/>
        <rect id="Rectangle_23018" data-name="Rectangle 23018" width="3.385" height="19.459" transform="translate(192.733 339.156) rotate(180)" opacity="0.2"/>
        <rect id="Rectangle_23019" data-name="Rectangle 23019" width="2.463" height="19.459" transform="translate(184.106 339.249) rotate(180)" opacity="0.2"/>
        <rect id="Rectangle_23020" data-name="Rectangle 23020" width="1.237" height="19.459" transform="translate(175.795 339.156) rotate(180)" opacity="0.2"/>
        <rect id="Rectangle_23021" data-name="Rectangle 23021" width="0.619" height="19.459" transform="translate(165.628 339.249) rotate(180)" opacity="0.2"/>
        <rect id="Rectangle_23022" data-name="Rectangle 23022" width="0.303" height="19.459" transform="translate(153.908 339.249) rotate(180)" opacity="0.2"/>
        <path id="Path_197182" data-name="Path 197182" d="M379.483,364.394H298.647a1.027,1.027,0,0,1-1.027-1.027h0a1.039,1.039,0,0,1,1.027-1.027h80.835a1.027,1.027,0,0,1,1.027,1.027h0a1.016,1.016,0,0,1-1.027,1.027Z" transform="translate(-185.221 -42.55)" fill="#fff" opacity="0.2"/>
        <rect id="Rectangle_23023" data-name="Rectangle 23023" width="85.586" height="21.782" rx="1.26" transform="translate(108.629 296.806)" fill="#ffc72f"/>
        <rect id="Rectangle_23024" data-name="Rectangle 23024" width="3.385" height="19.459" transform="translate(112.458 298.067)" opacity="0.2"/>
        <rect id="Rectangle_23025" data-name="Rectangle 23025" width="2.463" height="19.459" transform="translate(121.072 297.973)" opacity="0.2"/>
        <rect id="Rectangle_23026" data-name="Rectangle 23026" width="1.237" height="19.459" transform="translate(129.383 298.067)" opacity="0.2"/>
        <rect id="Rectangle_23027" data-name="Rectangle 23027" width="0.619" height="19.459" transform="translate(139.551 297.973)" opacity="0.2"/>
        <rect id="Rectangle_23028" data-name="Rectangle 23028" width="3.385" height="19.459" transform="translate(190.386 317.421) rotate(180)" opacity="0.2"/>
        <rect id="Rectangle_23029" data-name="Rectangle 23029" width="2.463" height="19.459" transform="translate(181.772 317.514) rotate(180)" opacity="0.2"/>
        <rect id="Rectangle_23030" data-name="Rectangle 23030" width="1.226" height="19.459" transform="translate(173.461 317.421) rotate(180)" opacity="0.2"/>
        <rect id="Rectangle_23031" data-name="Rectangle 23031" width="0.619" height="19.459" transform="translate(163.293 317.514) rotate(180)" opacity="0.2"/>
        <rect id="Rectangle_23032" data-name="Rectangle 23032" width="0.303" height="19.459" transform="translate(151.574 317.514) rotate(180)" opacity="0.2"/>
        <path id="Path_197183" data-name="Path 197183" d="M377.483,345.784H296.647a1.039,1.039,0,0,1-1.027-1.027h0a1.027,1.027,0,0,1,1.027-1.027h80.835a1.015,1.015,0,0,1,1.027,1.027h0A1.027,1.027,0,0,1,377.483,345.784Z" transform="translate(-185.555 -45.663)" fill="#fff" opacity="0.2"/>
        <rect id="Rectangle_23033" data-name="Rectangle 23033" width="85.586" height="21.782" rx="1.26" transform="translate(105.127 275.083)" fill="#ffc72f"/>
        <rect id="Rectangle_23034" data-name="Rectangle 23034" width="3.385" height="19.459" transform="translate(108.956 276.332)" opacity="0.2"/>
        <rect id="Rectangle_23035" data-name="Rectangle 23035" width="2.463" height="19.459" transform="translate(117.57 276.238)" opacity="0.2"/>
        <rect id="Rectangle_23036" data-name="Rectangle 23036" width="1.226" height="19.459" transform="translate(125.881 276.332)" opacity="0.2"/>
        <rect id="Rectangle_23037" data-name="Rectangle 23037" width="0.619" height="19.459" transform="translate(136.049 276.238)" opacity="0.2"/>
        <rect id="Rectangle_23038" data-name="Rectangle 23038" width="3.385" height="19.459" transform="translate(186.884 295.697) rotate(180)" opacity="0.2"/>
        <rect id="Rectangle_23039" data-name="Rectangle 23039" width="2.463" height="19.459" transform="translate(178.258 295.791) rotate(180)" opacity="0.2"/>
        <rect id="Rectangle_23040" data-name="Rectangle 23040" width="1.226" height="19.459" transform="translate(169.959 295.697) rotate(180)" opacity="0.2"/>
        <rect id="Rectangle_23041" data-name="Rectangle 23041" width="0.619" height="19.459" transform="translate(159.803 295.791) rotate(180)" opacity="0.2"/>
        <rect id="Rectangle_23042" data-name="Rectangle 23042" width="0.303" height="19.459" transform="translate(148.072 295.791) rotate(180)" opacity="0.2"/>
        <path id="Path_197184" data-name="Path 197184" d="M374.483,327.164H293.647a1.015,1.015,0,0,1-1.027-1.027h0a1.027,1.027,0,0,1,1.027-1.027h80.835a1.027,1.027,0,0,1,1.027,1.027h0a1.016,1.016,0,0,1-1.027,1.027Z" transform="translate(-186.057 -48.778)" fill="#fff" opacity="0.2"/>
        <rect id="Rectangle_23043" data-name="Rectangle 23043" width="85.586" height="21.782" rx="1.26" transform="translate(108.629 253.348)" fill="#ffc72f"/>
        <rect id="Rectangle_23044" data-name="Rectangle 23044" width="3.385" height="19.459" transform="translate(112.458 254.608)" opacity="0.2"/>
        <rect id="Rectangle_23045" data-name="Rectangle 23045" width="2.463" height="19.459" transform="translate(121.072 254.515)" opacity="0.2"/>
        <rect id="Rectangle_23046" data-name="Rectangle 23046" width="1.237" height="19.459" transform="translate(129.383 254.608)" opacity="0.2"/>
        <rect id="Rectangle_23047" data-name="Rectangle 23047" width="0.619" height="19.459" transform="translate(139.551 254.515)" opacity="0.2"/>
        <rect id="Rectangle_23048" data-name="Rectangle 23048" width="3.385" height="19.459" transform="translate(190.386 273.962) rotate(180)" opacity="0.2"/>
        <rect id="Rectangle_23049" data-name="Rectangle 23049" width="2.463" height="19.459" transform="translate(181.772 274.055) rotate(180)" opacity="0.2"/>
        <rect id="Rectangle_23050" data-name="Rectangle 23050" width="1.226" height="19.459" transform="translate(173.461 273.962) rotate(180)" opacity="0.2"/>
        <rect id="Rectangle_23051" data-name="Rectangle 23051" width="0.619" height="19.459" transform="translate(163.293 274.055) rotate(180)" opacity="0.2"/>
        <rect id="Rectangle_23052" data-name="Rectangle 23052" width="0.303" height="19.459" transform="translate(151.574 274.055) rotate(180)" opacity="0.2"/>
        <path id="Path_197185" data-name="Path 197185" d="M377.483,308.554H296.647a1.027,1.027,0,0,1-1.027-1.027h0a1.027,1.027,0,0,1,1.027-1.027h80.835a1.016,1.016,0,0,1,1.027,1.027h0a1.015,1.015,0,0,1-1.027,1.027Z" transform="translate(-185.555 -51.892)" fill="#fff" opacity="0.2"/>
        <rect id="Rectangle_23053" data-name="Rectangle 23053" width="85.586" height="21.782" rx="1.26" transform="translate(108.629 231.624)" fill="#ffc72f"/>
        <rect id="Rectangle_23054" data-name="Rectangle 23054" width="3.385" height="19.459" transform="translate(112.458 232.873)" opacity="0.2"/>
        <rect id="Rectangle_23055" data-name="Rectangle 23055" width="2.463" height="19.459" transform="translate(121.072 232.78)" opacity="0.2"/>
        <rect id="Rectangle_23056" data-name="Rectangle 23056" width="1.237" height="19.459" transform="translate(129.383 232.873)" opacity="0.2"/>
        <rect id="Rectangle_23057" data-name="Rectangle 23057" width="0.619" height="19.459" transform="translate(139.551 232.78)" opacity="0.2"/>
        <rect id="Rectangle_23058" data-name="Rectangle 23058" width="3.385" height="19.459" transform="translate(190.386 252.239) rotate(180)" opacity="0.2"/>
        <rect id="Rectangle_23059" data-name="Rectangle 23059" width="2.463" height="19.459" transform="translate(181.772 252.332) rotate(180)" opacity="0.2"/>
        <rect id="Rectangle_23060" data-name="Rectangle 23060" width="1.226" height="19.459" transform="translate(173.461 252.239) rotate(180)" opacity="0.2"/>
        <rect id="Rectangle_23061" data-name="Rectangle 23061" width="0.619" height="19.459" transform="translate(163.293 252.332) rotate(180)" opacity="0.2"/>
        <rect id="Rectangle_23062" data-name="Rectangle 23062" width="0.303" height="19.459" transform="translate(151.574 252.332) rotate(180)" opacity="0.2"/>
        <path id="Path_197186" data-name="Path 197186" d="M377.483,289.946H296.647a1.039,1.039,0,0,1-1.027-1.039h0a1.039,1.039,0,0,1,1.027-1.027h80.835a1.027,1.027,0,0,1,1.027,1.027h0a1.027,1.027,0,0,1-1.027,1.039Z" transform="translate(-185.555 -55.007)" fill="#fff" opacity="0.2"/>
        <rect id="Rectangle_23063" data-name="Rectangle 23063" width="85.586" height="21.782" rx="1.26" transform="translate(112.131 209.889)" fill="#ffc72f"/>
        <rect id="Rectangle_23064" data-name="Rectangle 23064" width="3.385" height="19.459" transform="translate(115.959 211.15)" opacity="0.2"/>
        <rect id="Rectangle_23065" data-name="Rectangle 23065" width="2.463" height="19.459" transform="translate(124.586 211.056)" opacity="0.2"/>
        <rect id="Rectangle_23066" data-name="Rectangle 23066" width="1.237" height="19.459" transform="translate(132.897 211.15)" opacity="0.2"/>
        <rect id="Rectangle_23067" data-name="Rectangle 23067" width="0.619" height="19.459" transform="translate(143.052 211.056)" opacity="0.2"/>
        <rect id="Rectangle_23068" data-name="Rectangle 23068" width="3.385" height="19.459" transform="translate(193.9 230.504) rotate(180)" opacity="0.2"/>
        <rect id="Rectangle_23069" data-name="Rectangle 23069" width="2.463" height="19.459" transform="translate(185.274 230.609) rotate(180)" opacity="0.2"/>
        <rect id="Rectangle_23070" data-name="Rectangle 23070" width="1.226" height="19.459" transform="translate(176.962 230.504) rotate(180)" opacity="0.2"/>
        <rect id="Rectangle_23071" data-name="Rectangle 23071" width="0.619" height="19.459" transform="translate(166.795 230.609) rotate(180)" opacity="0.2"/>
        <rect id="Rectangle_23072" data-name="Rectangle 23072" width="0.303" height="19.459" transform="translate(155.087 230.609) rotate(180)" opacity="0.2"/>
        <path id="Path_197187" data-name="Path 197187" d="M380.483,271.294H299.659a1.027,1.027,0,0,1-1.039-1.027h0a1.027,1.027,0,0,1,1.039-1.027h80.824a1.027,1.027,0,0,1,1.039,1.027h0a1.027,1.027,0,0,1-1.039,1.027Z" transform="translate(-185.054 -58.125)" fill="#fff" opacity="0.2"/>
        <rect id="Rectangle_23073" data-name="Rectangle 23073" width="85.586" height="21.782" rx="1.26" transform="translate(106.294 188.166)" fill="#ffc72f"/>
        <rect id="Rectangle_23074" data-name="Rectangle 23074" width="3.385" height="19.459" transform="translate(110.123 189.426)" opacity="0.2"/>
        <rect id="Rectangle_23075" data-name="Rectangle 23075" width="2.463" height="19.459" transform="translate(118.738 189.321)" opacity="0.2"/>
        <rect id="Rectangle_23076" data-name="Rectangle 23076" width="1.226" height="19.459" transform="translate(127.049 189.426)" opacity="0.2"/>
        <rect id="Rectangle_23077" data-name="Rectangle 23077" width="0.619" height="19.459" transform="translate(137.216 189.321)" opacity="0.2"/>
        <rect id="Rectangle_23078" data-name="Rectangle 23078" width="3.385" height="19.459" transform="translate(188.052 208.78) rotate(180)" opacity="0.2"/>
        <rect id="Rectangle_23079" data-name="Rectangle 23079" width="2.463" height="19.459" transform="translate(179.425 208.873) rotate(180)" opacity="0.2"/>
        <rect id="Rectangle_23080" data-name="Rectangle 23080" width="1.226" height="19.459" transform="translate(171.126 208.78) rotate(180)" opacity="0.2"/>
        <rect id="Rectangle_23081" data-name="Rectangle 23081" width="0.619" height="19.459" transform="translate(160.959 208.873) rotate(180)" opacity="0.2"/>
        <rect id="Rectangle_23082" data-name="Rectangle 23082" width="0.303" height="19.459" transform="translate(149.239 208.873) rotate(180)" opacity="0.2"/>
        <path id="Path_197188" data-name="Path 197188" d="M375.483,252.714H294.647a1.039,1.039,0,0,1-1.027-1.027h0a1.027,1.027,0,0,1,1.027-1.027h80.835a1.016,1.016,0,0,1,1.027,1.027h0A1.027,1.027,0,0,1,375.483,252.714Z" transform="translate(-185.89 -61.234)" fill="#fff" opacity="0.2"/>
        <rect id="Rectangle_23083" data-name="Rectangle 23083" width="85.586" height="21.782" rx="1.26" transform="translate(103.96 166.431)" fill="#ffc72f"/>
        <rect id="Rectangle_23084" data-name="Rectangle 23084" width="3.385" height="19.459" transform="translate(107.788 167.691)" opacity="0.2"/>
        <rect id="Rectangle_23085" data-name="Rectangle 23085" width="2.463" height="19.459" transform="translate(116.403 167.598)" opacity="0.2"/>
        <rect id="Rectangle_23086" data-name="Rectangle 23086" width="1.237" height="19.459" transform="translate(124.714 167.691)" opacity="0.2"/>
        <rect id="Rectangle_23087" data-name="Rectangle 23087" width="0.619" height="19.459" transform="translate(134.881 167.598)" opacity="0.2"/>
        <rect id="Rectangle_23088" data-name="Rectangle 23088" width="3.385" height="19.459" transform="translate(185.717 187.045) rotate(180)" opacity="0.2"/>
        <rect id="Rectangle_23089" data-name="Rectangle 23089" width="2.463" height="19.459" transform="translate(177.091 187.15) rotate(180)" opacity="0.2"/>
        <rect id="Rectangle_23090" data-name="Rectangle 23090" width="1.226" height="19.459" transform="translate(168.78 187.045) rotate(180)" opacity="0.2"/>
        <rect id="Rectangle_23091" data-name="Rectangle 23091" width="0.619" height="19.459" transform="translate(158.636 187.15) rotate(180)" opacity="0.2"/>
        <rect id="Rectangle_23092" data-name="Rectangle 23092" width="0.303" height="19.459" transform="translate(146.904 187.15) rotate(180)" opacity="0.2"/>
        <path id="Path_197189" data-name="Path 197189" d="M373.483,234.094H292.647a1.016,1.016,0,0,1-1.027-1.027h0a1.016,1.016,0,0,1,1.027-1.027h80.835a1.016,1.016,0,0,1,1.027,1.027h0a1.015,1.015,0,0,1-1.027,1.027Z" transform="translate(-186.225 -64.349)" fill="#fff" opacity="0.2"/>
        <rect id="Rectangle_23093" data-name="Rectangle 23093" width="85.586" height="21.782" rx="1.26" transform="translate(3.514 361.988)" fill="#ffc72f"/>
        <rect id="Rectangle_23094" data-name="Rectangle 23094" width="3.385" height="19.459" transform="translate(7.331 363.249)" opacity="0.2"/>
        <rect id="Rectangle_23095" data-name="Rectangle 23095" width="2.463" height="19.459" transform="translate(15.957 363.155)" opacity="0.2"/>
        <rect id="Rectangle_23096" data-name="Rectangle 23096" width="1.226" height="19.459" transform="translate(24.268 363.249)" opacity="0.2"/>
        <rect id="Rectangle_23097" data-name="Rectangle 23097" width="0.619" height="19.459" transform="translate(34.424 363.155)" opacity="0.2"/>
        <rect id="Rectangle_23098" data-name="Rectangle 23098" width="3.385" height="19.459" transform="translate(85.271 382.614) rotate(180)" opacity="0.2"/>
        <rect id="Rectangle_23099" data-name="Rectangle 23099" width="2.463" height="19.459" transform="translate(76.645 382.708) rotate(180)" opacity="0.2"/>
        <rect id="Rectangle_23100" data-name="Rectangle 23100" width="1.226" height="19.459" transform="translate(68.334 382.614) rotate(180)" opacity="0.2"/>
        <rect id="Rectangle_23101" data-name="Rectangle 23101" width="0.619" height="19.459" transform="translate(58.178 382.708) rotate(180)" opacity="0.2"/>
        <rect id="Rectangle_23102" data-name="Rectangle 23102" width="0.303" height="19.459" transform="translate(46.458 382.708) rotate(180)" opacity="0.2"/>
        <path id="Path_197190" data-name="Path 197190" d="M287.433,401.624H206.6a1.016,1.016,0,0,1-1.027-1.027h0a1.027,1.027,0,0,1,1.027-1.027h80.835a1.039,1.039,0,0,1,1.027,1.027h0A1.027,1.027,0,0,1,287.433,401.624Z" transform="translate(-200.621 -36.321)" fill="#fff" opacity="0.2"/>
        <rect id="Rectangle_23103" data-name="Rectangle 23103" width="85.586" height="21.782" rx="1.26" transform="translate(0 340.265)" fill="#ffc72f"/>
        <rect id="Rectangle_23104" data-name="Rectangle 23104" width="3.385" height="19.459" transform="translate(3.829 341.525)" opacity="0.2"/>
        <rect id="Rectangle_23105" data-name="Rectangle 23105" width="2.463" height="19.459" transform="translate(12.455 341.432)" opacity="0.2"/>
        <rect id="Rectangle_23106" data-name="Rectangle 23106" width="1.226" height="19.459" transform="translate(20.766 341.525)" opacity="0.2"/>
        <rect id="Rectangle_23107" data-name="Rectangle 23107" width="0.619" height="19.459" transform="translate(30.922 341.432)" opacity="0.2"/>
        <rect id="Rectangle_23108" data-name="Rectangle 23108" width="3.385" height="19.459" transform="translate(81.769 360.879) rotate(180)" opacity="0.2"/>
        <rect id="Rectangle_23109" data-name="Rectangle 23109" width="2.463" height="19.459" transform="translate(73.143 360.973) rotate(180)" opacity="0.2"/>
        <rect id="Rectangle_23110" data-name="Rectangle 23110" width="1.226" height="19.459" transform="translate(64.832 360.879) rotate(180)" opacity="0.2"/>
        <rect id="Rectangle_23111" data-name="Rectangle 23111" width="0.619" height="19.459" transform="translate(54.665 360.973) rotate(180)" opacity="0.2"/>
        <rect id="Rectangle_23112" data-name="Rectangle 23112" width="0.303" height="19.459" transform="translate(42.945 360.973) rotate(180)" opacity="0.2"/>
        <path id="Path_197191" data-name="Path 197191" d="M284.423,383.014H203.587a1.039,1.039,0,0,1-1.027-1.027h0a1.027,1.027,0,0,1,1.027-1.027h80.835a1.016,1.016,0,0,1,1.027,1.027h0A1.027,1.027,0,0,1,284.423,383.014Z" transform="translate(-201.124 -39.435)" fill="#fff" opacity="0.2"/>
        <rect id="Rectangle_23113" data-name="Rectangle 23113" width="85.586" height="21.782" rx="1.26" transform="translate(3.514 318.541)" fill="#ffc72f"/>
        <rect id="Rectangle_23114" data-name="Rectangle 23114" width="3.385" height="19.459" transform="translate(7.331 319.79)" opacity="0.2"/>
        <rect id="Rectangle_23115" data-name="Rectangle 23115" width="2.463" height="19.459" transform="translate(15.957 319.697)" opacity="0.2"/>
        <rect id="Rectangle_23116" data-name="Rectangle 23116" width="1.226" height="19.459" transform="translate(24.268 319.79)" opacity="0.2"/>
        <rect id="Rectangle_23117" data-name="Rectangle 23117" width="0.619" height="19.459" transform="translate(34.424 319.697)" opacity="0.2"/>
        <rect id="Rectangle_23118" data-name="Rectangle 23118" width="3.385" height="19.459" transform="translate(85.271 339.156) rotate(180)" opacity="0.2"/>
        <rect id="Rectangle_23119" data-name="Rectangle 23119" width="2.463" height="19.459" transform="translate(76.645 339.249) rotate(180)" opacity="0.2"/>
        <rect id="Rectangle_23120" data-name="Rectangle 23120" width="1.226" height="19.459" transform="translate(68.334 339.156) rotate(180)" opacity="0.2"/>
        <rect id="Rectangle_23121" data-name="Rectangle 23121" width="0.619" height="19.459" transform="translate(58.178 339.249) rotate(180)" opacity="0.2"/>
        <rect id="Rectangle_23122" data-name="Rectangle 23122" width="0.303" height="19.459" transform="translate(46.458 339.249) rotate(180)" opacity="0.2"/>
        <path id="Path_197192" data-name="Path 197192" d="M287.433,364.394H206.6a1.015,1.015,0,0,1-1.027-1.027h0a1.027,1.027,0,0,1,1.027-1.027h80.835a1.039,1.039,0,0,1,1.027,1.027h0A1.027,1.027,0,0,1,287.433,364.394Z" transform="translate(-200.621 -42.55)" fill="#fff" opacity="0.2"/>
        <rect id="Rectangle_23123" data-name="Rectangle 23123" width="85.586" height="21.782" rx="1.26" transform="translate(1.167 296.806)" fill="#ffc72f"/>
        <rect id="Rectangle_23124" data-name="Rectangle 23124" width="3.385" height="19.459" transform="translate(4.996 298.067)" opacity="0.2"/>
        <rect id="Rectangle_23125" data-name="Rectangle 23125" width="2.463" height="19.459" transform="translate(13.622 297.973)" opacity="0.2"/>
        <rect id="Rectangle_23126" data-name="Rectangle 23126" width="1.226" height="19.459" transform="translate(21.934 298.067)" opacity="0.2"/>
        <rect id="Rectangle_23127" data-name="Rectangle 23127" width="0.619" height="19.459" transform="translate(32.089 297.973)" opacity="0.2"/>
        <rect id="Rectangle_23128" data-name="Rectangle 23128" width="3.385" height="19.459" transform="translate(82.937 317.421) rotate(180)" opacity="0.2"/>
        <rect id="Rectangle_23129" data-name="Rectangle 23129" width="2.463" height="19.459" transform="translate(74.31 317.514) rotate(180)" opacity="0.2"/>
        <rect id="Rectangle_23130" data-name="Rectangle 23130" width="1.237" height="19.459" transform="translate(65.999 317.421) rotate(180)" opacity="0.2"/>
        <rect id="Rectangle_23131" data-name="Rectangle 23131" width="0.619" height="19.459" transform="translate(55.832 317.514) rotate(180)" opacity="0.2"/>
        <rect id="Rectangle_23132" data-name="Rectangle 23132" width="0.303" height="19.459" transform="translate(44.124 317.514) rotate(180)" opacity="0.2"/>
        <path id="Path_197193" data-name="Path 197193" d="M285.423,345.784H204.6a1.039,1.039,0,0,1-1.039-1.027h0a1.027,1.027,0,0,1,1.039-1.027h80.824a1.027,1.027,0,0,1,1.039,1.027h0a1.039,1.039,0,0,1-1.039,1.027Z" transform="translate(-200.957 -45.663)" fill="#fff" opacity="0.2"/>
        <rect id="Rectangle_23133" data-name="Rectangle 23133" width="85.586" height="21.782" rx="1.26" transform="translate(1.167 275.083)" fill="#ffc72f"/>
        <rect id="Rectangle_23134" data-name="Rectangle 23134" width="3.385" height="19.459" transform="translate(4.996 276.332)" opacity="0.2"/>
        <rect id="Rectangle_23135" data-name="Rectangle 23135" width="2.463" height="19.459" transform="translate(13.622 276.238)" opacity="0.2"/>
        <rect id="Rectangle_23136" data-name="Rectangle 23136" width="1.226" height="19.459" transform="translate(21.934 276.332)" opacity="0.2"/>
        <rect id="Rectangle_23137" data-name="Rectangle 23137" width="0.619" height="19.459" transform="translate(32.089 276.238)" opacity="0.2"/>
        <rect id="Rectangle_23138" data-name="Rectangle 23138" width="3.385" height="19.459" transform="translate(82.937 295.697) rotate(180)" opacity="0.2"/>
        <rect id="Rectangle_23139" data-name="Rectangle 23139" width="2.463" height="19.459" transform="translate(74.31 295.791) rotate(180)" opacity="0.2"/>
        <rect id="Rectangle_23140" data-name="Rectangle 23140" width="1.237" height="19.459" transform="translate(65.999 295.697) rotate(180)" opacity="0.2"/>
        <rect id="Rectangle_23141" data-name="Rectangle 23141" width="0.619" height="19.459" transform="translate(55.832 295.791) rotate(180)" opacity="0.2"/>
        <rect id="Rectangle_23142" data-name="Rectangle 23142" width="0.303" height="19.459" transform="translate(44.124 295.791) rotate(180)" opacity="0.2"/>
        <path id="Path_197194" data-name="Path 197194" d="M285.423,327.164H204.6a1.027,1.027,0,0,1-1.039-1.027h0a1.039,1.039,0,0,1,1.039-1.027h80.824a1.039,1.039,0,0,1,1.039,1.027h0a1.027,1.027,0,0,1-1.039,1.027Z" transform="translate(-200.957 -48.778)" fill="#fff" opacity="0.2"/>
        <rect id="Rectangle_23143" data-name="Rectangle 23143" width="85.586" height="21.782" rx="1.26" transform="translate(1.167 253.348)" fill="#ffc72f"/>
        <rect id="Rectangle_23144" data-name="Rectangle 23144" width="3.385" height="19.459" transform="translate(4.996 254.608)" opacity="0.2"/>
        <rect id="Rectangle_23145" data-name="Rectangle 23145" width="2.463" height="19.459" transform="translate(13.622 254.515)" opacity="0.2"/>
        <rect id="Rectangle_23146" data-name="Rectangle 23146" width="1.226" height="19.459" transform="translate(21.934 254.608)" opacity="0.2"/>
        <rect id="Rectangle_23147" data-name="Rectangle 23147" width="0.619" height="19.459" transform="translate(32.089 254.515)" opacity="0.2"/>
        <rect id="Rectangle_23148" data-name="Rectangle 23148" width="3.385" height="19.459" transform="translate(82.937 273.962) rotate(180)" opacity="0.2"/>
        <rect id="Rectangle_23149" data-name="Rectangle 23149" width="2.463" height="19.459" transform="translate(74.31 274.055) rotate(180)" opacity="0.2"/>
        <rect id="Rectangle_23150" data-name="Rectangle 23150" width="1.237" height="19.459" transform="translate(65.999 273.962) rotate(180)" opacity="0.2"/>
        <rect id="Rectangle_23151" data-name="Rectangle 23151" width="0.619" height="19.459" transform="translate(55.832 274.055) rotate(180)" opacity="0.2"/>
        <rect id="Rectangle_23152" data-name="Rectangle 23152" width="0.303" height="19.459" transform="translate(44.124 274.055) rotate(180)" opacity="0.2"/>
        <path id="Path_197195" data-name="Path 197195" d="M285.423,308.554H204.6a1.027,1.027,0,0,1-1.039-1.027h0A1.027,1.027,0,0,1,204.6,306.5h80.824a1.027,1.027,0,0,1,1.039,1.027h0a1.027,1.027,0,0,1-1.039,1.027Z" transform="translate(-200.957 -51.892)" fill="#fff" opacity="0.2"/>
        <rect id="Rectangle_23153" data-name="Rectangle 23153" width="85.586" height="21.782" rx="1.26" transform="translate(2.183 209.656)" fill="#ffc72f"/>
        <rect id="Rectangle_23154" data-name="Rectangle 23154" width="3.385" height="19.459" transform="translate(6.012 210.916)" opacity="0.2"/>
        <rect id="Rectangle_23155" data-name="Rectangle 23155" width="2.463" height="19.459" transform="translate(14.638 210.823)" opacity="0.2"/>
        <rect id="Rectangle_23156" data-name="Rectangle 23156" width="1.226" height="19.459" transform="translate(22.949 210.916)" opacity="0.2"/>
        <rect id="Rectangle_23157" data-name="Rectangle 23157" width="0.619" height="19.459" transform="translate(33.105 210.823)" opacity="0.2"/>
        <rect id="Rectangle_23158" data-name="Rectangle 23158" width="3.385" height="19.459" transform="translate(83.952 230.27) rotate(180)" opacity="0.2"/>
        <rect id="Rectangle_23159" data-name="Rectangle 23159" width="2.463" height="19.459" transform="translate(75.326 230.375) rotate(180)" opacity="0.2"/>
        <rect id="Rectangle_23160" data-name="Rectangle 23160" width="1.226" height="19.459" transform="translate(67.015 230.27) rotate(180)" opacity="0.2"/>
        <rect id="Rectangle_23161" data-name="Rectangle 23161" width="0.619" height="19.459" transform="translate(56.847 230.375) rotate(180)" opacity="0.2"/>
        <rect id="Rectangle_23162" data-name="Rectangle 23162" width="0.303" height="19.459" transform="translate(45.139 230.375) rotate(180)" opacity="0.2"/>
        <path id="Path_197196" data-name="Path 197196" d="M286.293,271.124H205.469a1.027,1.027,0,0,1-1.039-1.027h0a1.039,1.039,0,0,1,1.039-1.027h80.824a1.039,1.039,0,0,1,1.039,1.027h0a1.027,1.027,0,0,1-1.039,1.027Z" transform="translate(-200.811 -58.154)" fill="#fff" opacity="0.2"/>
        <rect id="Rectangle_23163" data-name="Rectangle 23163" width="85.586" height="21.782" rx="1.26" transform="translate(3.514 231.624)" fill="#ffc72f"/>
        <rect id="Rectangle_23164" data-name="Rectangle 23164" width="3.385" height="19.459" transform="translate(7.331 232.873)" opacity="0.2"/>
        <rect id="Rectangle_23165" data-name="Rectangle 23165" width="2.463" height="19.459" transform="translate(15.957 232.78)" opacity="0.2"/>
        <rect id="Rectangle_23166" data-name="Rectangle 23166" width="1.226" height="19.459" transform="translate(24.268 232.873)" opacity="0.2"/>
        <rect id="Rectangle_23167" data-name="Rectangle 23167" width="0.619" height="19.459" transform="translate(34.424 232.78)" opacity="0.2"/>
        <rect id="Rectangle_23168" data-name="Rectangle 23168" width="3.385" height="19.459" transform="translate(85.271 252.239) rotate(180)" opacity="0.2"/>
        <rect id="Rectangle_23169" data-name="Rectangle 23169" width="2.463" height="19.459" transform="translate(76.645 252.332) rotate(180)" opacity="0.2"/>
        <rect id="Rectangle_23170" data-name="Rectangle 23170" width="1.226" height="19.459" transform="translate(68.334 252.239) rotate(180)" opacity="0.2"/>
        <rect id="Rectangle_23171" data-name="Rectangle 23171" width="0.619" height="19.459" transform="translate(58.178 252.332) rotate(180)" opacity="0.2"/>
        <rect id="Rectangle_23172" data-name="Rectangle 23172" width="0.303" height="19.459" transform="translate(46.458 252.332) rotate(180)" opacity="0.2"/>
        <path id="Path_197197" data-name="Path 197197" d="M287.433,289.946H206.6a1.027,1.027,0,0,1-1.027-1.039h0a1.027,1.027,0,0,1,1.027-1.027h80.835a1.039,1.039,0,0,1,1.027,1.027h0a1.039,1.039,0,0,1-1.027,1.039Z" transform="translate(-200.621 -55.007)" fill="#fff" opacity="0.2"/>
        <path id="Path_197198" data-name="Path 197198" d="M251.5,256.554l-2.615,5.113-2.661,5.194-4.658-1.7,2.335-4.564,2.942-5.743Z" transform="translate(-194.598 -60.533)" fill="#ffc2bc"/>
        <path id="Path_197199" data-name="Path 197199" d="M251.169,256.554l-2.615,5.113-4.984-1.074,2.942-5.743Z" transform="translate(-194.263 -60.533)" opacity="0.2"/>
        <path id="Path_197200" data-name="Path 197200" d="M342.186,255.49a.572.572,0,0,1-.572-.5c-.163-1.167-15.5-115.563-34.015-165.756a.584.584,0,1,1,1.086-.409c18.572,50.287,33.933,164.869,34.085,166.036a.6.6,0,0,1-.5.665Z" transform="translate(-183.562 -88.382)" fill="#263238"/>
        <path id="Path_197201" data-name="Path 197201" d="M311.9,230.4l4.961-.2.969-11.51-4.973.2Z" transform="translate(-182.832 -66.582)" fill="#ffc2bc"/>
        <path id="Path_197202" data-name="Path 197202" d="M317.561,226.325l-5.416-.175a.467.467,0,0,0-.444.327l-1.167,4.366a.724.724,0,0,0,.677.91c1.961,0,4.8,0,7.261.07,2.872.093,4.669,0,8.078.058,2.031.058,2.685-1.973,1.833-2.183-3.852-.969-6.373-.794-9.642-2.953A2.334,2.334,0,0,0,317.561,226.325Z" transform="translate(-183.065 -65.334)" fill="#263238"/>
        <path id="Path_197203" data-name="Path 197203" d="M317.763,218.69l-.5,5.93-4.961.21.49-5.942Z" transform="translate(-182.765 -66.582)" opacity="0.2"/>
        <path id="Path_197204" data-name="Path 197204" d="M317.3,196.806c1.261,2.416,1.354,27.747,1.354,34.178h8.58c1.109-6.665,6.6-42.455-1.167-47.567-8.545-5.638-30.21-3.7-30.21-3.7l-1.564-3.163-3.128-6.3-17.93,6.712-3.91,1.447-1.611.607h-.14v.479h0c.058.7.222,2.113.514,3.875a49.366,49.366,0,0,0,1.424,6.257c1.658,5.4,4.6,10.506,9.712,8.8.222-.07.444-.163.665-.257.42-.187.875-.362,1.342-.537a54.978,54.978,0,0,1,12.63-2.486C304.69,194.121,316.34,194.938,317.3,196.806Z" transform="translate(-190.248 -74.686)" fill="#031728"/>
        <path id="Path_197205" data-name="Path 197205" d="M320.455,223.41l-10.027.269-.058-3.233,11.019-.455Z" transform="translate(-183.088 -66.365)" fill="#407bff"/>
        <path id="Path_197206" data-name="Path 197206" d="M247.377,263H241.33a.432.432,0,0,0-.42.339l-1.027,4.4a.724.724,0,0,0,.712.887c1.949,0,3.374-.152,5.837-.152,1.506,0,6.047.163,8.171.163s2.335-2.066,1.518-2.253c-3.805-.829-6.677-1.984-7.891-3.082A1.167,1.167,0,0,0,247.377,263Z" transform="translate(-194.883 -59.169)" fill="#263238"/>
        <path id="Path_197207" data-name="Path 197207" d="M290.918,178.09l-1.039,3.584c-.549,1.914-1.307,4.517-2.195,7.541l-2.218,7.552c-3.782,12.782-8.591,28.739-11.253,36.315-5.3,15.035-23.031,41.778-23.031,41.778l-8.533-3.128s13.1-25.19,17.393-40.435c3-10.646,7.7-29.778,10.8-42.63l1.482-6.163c.5-2.1.911-3.817,1.167-5.019s.467-1.973.467-1.973l3.444.525Z" transform="translate(-194.417 -73.806)" fill="#031728"/>
        <path id="Path_197208" data-name="Path 197208" d="M252.189,262.057l-10.039-3.689,1.132-2.988,10.7,3.245Z" transform="translate(-194.501 -60.444)" fill="#407bff"/>
        <path id="Path_197209" data-name="Path 197209" d="M294.458,176.542l-7.576,8.836-1.039-2.825-1.167-3.082-1.062,10.622-13.938-.455-2.907-.093,1.482-6.163c-.292-1.763-.455-3.175-.514-3.875h0l.093-.525,1.611-.607c.3-1.261.467-1.973.467-1.973l3.444.525,17.965-6.677Z" transform="translate(-190.382 -74.686)" opacity="0.2"/>
        <path id="Path_197210" data-name="Path 197210" d="M292.233,191.84a49.376,49.376,0,0,0-14.008,3.023c-.222.093-.444.187-.665.257l1.016-5S287.319,189.716,292.233,191.84Z" transform="translate(-188.577 -71.366)" opacity="0.2"/>
        <path id="Path_197211" data-name="Path 197211" d="M235.086,180.2l-3.047,4.039-2.58-4.914s2.93-3.444,4.669-1.856Z" transform="translate(-196.624 -73.548)" fill="#ffc2bc"/>
        <path id="Path_197212" data-name="Path 197212" d="M227.789,185.767l-.759-5.031,2.837-1.786,2.58,4.973Z" transform="translate(-197.03 -73.231)" fill="#ffc2bc"/>
        <path id="Path_197213" data-name="Path 197213" d="M235.293,179.92l-.852.432-1.261-3.2,1.354-.654Z" transform="translate(-196.002 -73.641)" fill="#fff"/>
        <path id="Path_197214" data-name="Path 197214" d="M269.182,155.332q-.665,1.167-1.366,2.241-1.763,2.872-3.689,5.65l-1.062,1.529c-1.074,1.541-2.206,3.047-3.42,4.552-.607.747-1.226,1.506-1.914,2.253a26.359,26.359,0,0,1-2.206,2.218,48.194,48.194,0,0,1-9.782,6.455,75.541,75.541,0,0,1-10.506,4.459l-1.518-3.408c1.517-.922,3.093-1.868,4.6-2.848s3.035-1.949,4.494-2.977,2.895-2.066,4.249-3.152a39.6,39.6,0,0,0,3.782-3.374,61.422,61.422,0,0,0,6.035-8.334c1.949-3.023,4.412-8.323,6.338-11.346Z" transform="translate(-195.911 -78.199)" fill="#031728"/>
        <path id="Path_197215" data-name="Path 197215" d="M263.459,156.574q-1.763,2.872-3.689,5.65a16.343,16.343,0,0,1,2-7,3.233,3.233,0,0,1,1.693,1.354Z" transform="translate(-191.553 -77.201)" opacity="0.2"/>
        <path id="Path_197216" data-name="Path 197216" d="M320.755,143.808l-3.385,3.152.479,2.918c1.237,1.634,4.085-.385,4.751-.9a1.972,1.972,0,0,1,.338-.2l1.8-.724a1.529,1.529,0,0,0,.922-1.658l-.35-2.148a1.506,1.506,0,0,0-1.8-1.237l-2.019.409a1.448,1.448,0,0,0-.735.385Z" transform="translate(-181.917 -79.248)" fill="#ffc2bc"/>
        <path id="Path_197217" data-name="Path 197217" d="M316.7,146.443l.934-.233.537,3.385-1.471.35Z" transform="translate(-182.029 -78.708)" fill="#fff"/>
        <path id="Path_197218" data-name="Path 197218" d="M323.7,151.581a76.207,76.207,0,0,1-11.253,1.517,47.45,47.45,0,0,1-11.673-.537,26.24,26.24,0,0,1-3.035-.77c-.981-.3-1.891-.63-2.8-.969-1.809-.665-3.5-1.377-5.264-2.16l-2.066-.934c-1.564-.724-3.105-1.471-4.669-2.253-1.167-.56-2.253-1.167-3.374-1.774l3-7.132c3.21,1.611,7,3.794,10.226,5.393a59.167,59.167,0,0,0,9.443,4.062,38.256,38.256,0,0,0,4.973.969c1.728.245,3.5.4,5.264.537s3.584.222,5.381.245,3.642.082,5.416.105Z" transform="translate(-188.242 -80.321)" fill="#031728"/>
        <path id="Path_197219" data-name="Path 197219" d="M287.176,146.928c-1.564-.724-3.105-1.471-4.669-2.253l-.607-3.315A11.673,11.673,0,0,1,287.176,146.928Z" transform="translate(-187.851 -79.519)" opacity="0.2"/>
        <path id="Path_197220" data-name="Path 197220" d="M259.88,150.6a94.008,94.008,0,0,1,4.6,14.638c.84,3.5,3.817,7,4.331,10.214a89.693,89.693,0,0,0,2.1,10.506c3.56-1.914,14.334-4.284,21.56-8.171.3-29.089-7.506-40.435-7.506-40.435a49.2,49.2,0,0,0-5.836,1.879l-1.261.525a111.549,111.549,0,0,0-10.155,5.451c-.642.385-1.284.782-1.9,1.167C262.635,148.451,259.88,150.6,259.88,150.6Z" transform="translate(-191.535 -80.19)" fill="#407bff"/>
        <path id="Path_197221" data-name="Path 197221" d="M259.88,150.6a94.008,94.008,0,0,1,4.6,14.638c.84,3.5,3.817,7,4.331,10.214a89.693,89.693,0,0,0,2.1,10.506c3.56-1.914,14.334-4.284,21.56-8.171.3-29.089-7.506-40.435-7.506-40.435a49.2,49.2,0,0,0-5.836,1.879l-1.261.525a111.549,111.549,0,0,0-10.155,5.451c-.642.385-1.284.782-1.9,1.167C262.635,148.451,259.88,150.6,259.88,150.6Z" transform="translate(-191.535 -80.19)" fill="#fff" opacity="0.7"/>
        <path id="Path_197222" data-name="Path 197222" d="M276.635,148.633l.444-2.7-1.856-.117-1.132,1.249Z" transform="translate(-189.157 -78.773)" fill="#407bff"/>
        <path id="Path_197223" data-name="Path 197223" d="M276.554,147.925c-3.432,1.914-6.829-.315-9.023-1.844l-.233-.163c.969-1.342,1.062-3.5.747-5.673a32.279,32.279,0,0,0-1.914-7l7.856,4.506c0,.537-.093,1.016-.117,1.436-.105,1.016-.117,1.7.444,2.148a5.159,5.159,0,0,0,2.86.642C278.071,143.01,278.912,146.606,276.554,147.925Z" transform="translate(-190.489 -80.878)" fill="#ffc2bc"/>
        <path id="Path_197224" data-name="Path 197224" d="M266,146.539s9.887,10.319,17.124,15.934c0,0-.537-18.245-3.805-23.089l6.724-2.813s6.467,14.288,7.389,38.147l2.918,6.012-8.171,8.311-2.626-6.163L283.787,193.1,266.931,194.6,269,182.923l-9.957-31.517Z" transform="translate(-191.675 -80.321)" fill="#031728"/>
        <path id="Path_197225" data-name="Path 197225" d="M275.51,147.849s2.335,7.961,2.171,12.21l3.012,1.564.537-2.335s-2.65-10.261-5.089-12.058Z" transform="translate(-188.92 -78.537)" fill="#407bff"/>
        <path id="Path_197226" data-name="Path 197226" d="M265.651,145.3s12.35,13.552,16.716,16.786c0,0-1.272-18.35-4.109-22.961,0,0,1.949-1.342,6.1,2.708l-2.078,3.852,3.689,2.545s-1.261,13.751-3.689,20.276a29.276,29.276,0,0,0,.233-4.156l-14.486-8.031.642-4.436-5.475-.233S263.807,146.4,265.651,145.3Z" transform="translate(-190.979 -79.93)" fill="#263238"/>
        <path id="Path_197227" data-name="Path 197227" d="M265.651,145.3s12.35,13.552,16.716,16.786c0,0-1.272-18.35-4.109-22.961,0,0,1.949-1.342,6.1,2.708l-2.078,3.852,3.689,2.545s-1.261,13.751-3.689,20.276a29.276,29.276,0,0,0,.233-4.156l-14.486-8.031.642-4.436-5.475-.233S263.807,146.4,265.651,145.3Z" transform="translate(-190.979 -79.93)" fill="#fff" opacity="0.2"/>
        <path id="Path_197228" data-name="Path 197228" d="M313.071,89.844s-7-.794-10.914,1.051-7.844,7.856-14.194,8.428-7.622-1.494-7.622-1.494,5.591,9.922,16.342,9.817,16.342-1.879,22.681,2.113C319.386,109.758,314.507,92.938,313.071,89.844Z" transform="translate(-188.112 -88.166)" fill="#0f63ac"/>
        <path id="Path_197229" data-name="Path 197229" d="M274.145,140.473c-.654,2.031-2.276,4.9-6.117,4.833a4.026,4.026,0,0,1-.665,0l-.233-.163c.969-1.342,1.062-3.5.747-5.673a7.8,7.8,0,0,1,5.836-1.086C273.6,139.341,273.585,140.03,274.145,140.473Z" transform="translate(-190.322 -80.045)" opacity="0.2"/>
        <path id="Path_197230" data-name="Path 197230" d="M276.467,146.36a8.253,8.253,0,0,1-.875,4.074c-2.159-.3-8.615-3.5-8.941-6.175a3.432,3.432,0,0,1,1-1.669A15.373,15.373,0,0,0,276.467,146.36Z" transform="translate(-190.402 -79.314)" fill="#fff"/>
        <path id="Path_197231" data-name="Path 197231" d="M275.393,146.856a8.557,8.557,0,0,1,3.28,1.669c.607-2.51-1.9-8.545-2.545-8.871a5.964,5.964,0,0,0-3.058.514S276.6,143.459,275.393,146.856Z" transform="translate(-189.328 -79.809)" fill="#fff"/>
        <path id="Path_197232" data-name="Path 197232" d="M260.251,131.24c-.128,2,1.167,5.731,3.409,3.864S260.473,127.808,260.251,131.24Z" transform="translate(-191.474 -81.399)" fill="#263238"/>
        <path id="Path_197233" data-name="Path 197233" d="M274.114,131.124c1.447,4.669,2.533,7.377,1.1,10.587-2.171,4.833-8.661,4.821-11.5.63-2.545-3.759-4.494-10.809-.654-14.3a6.782,6.782,0,0,1,11.054,3.082Z" transform="translate(-191.364 -82.042)" fill="#ffc2bc"/>
        <path id="Path_197234" data-name="Path 197234" d="M273.752,125.665c-.467-3.058-4.1-2.626-6.222-1.016h0v6.035a14.609,14.609,0,0,0,2.335-1.389s.829,4.517,3.6,5.836C276.985,131.711,277.277,126.435,273.752,125.665Z" transform="translate(-190.255 -82.524)" fill="#263238"/>
        <path id="Path_197235" data-name="Path 197235" d="M275.617,133.446a4.67,4.67,0,0,1-1.167,3.35c-1.109,1.167-2.533.409-2.942-1.1s-.245-3.584,1.167-4.226a2.125,2.125,0,0,1,2.942,1.973Z" transform="translate(-189.622 -81.201)" fill="#ffc2bc"/>
        <path id="Path_197236" data-name="Path 197236" d="M266.777,133.807a.691.691,0,0,1-.2.84c-.2.093-.56-.14-.7-.514a.691.691,0,0,1,.2-.84C266.275,133.2,266.625,133.433,266.777,133.807Z" transform="translate(-190.541 -80.872)" fill="#263238"/>
        <path id="Path_197237" data-name="Path 197237" d="M263.137,135.137c.152.374.058.747-.187.84s-.56-.14-.7-.514-.058-.747.187-.84S262.985,134.763,263.137,135.137Z" transform="translate(-191.15 -80.65)" fill="#263238"/>
        <path id="Path_197238" data-name="Path 197238" d="M264.305,134.8a13.679,13.679,0,0,1-.665,3.747,2.335,2.335,0,0,0,1.9-.35Z" transform="translate(-190.906 -80.617)" fill="#ed893e"/>
        <path id="Path_197239" data-name="Path 197239" d="M267.551,138.618l-.479.21a.118.118,0,0,1-.082-.222,3.163,3.163,0,0,0,2-2.043.117.117,0,0,1,.14-.093.105.105,0,0,1,.082.14,3.28,3.28,0,0,1-1.658,2.008Z" transform="translate(-190.358 -80.338)" fill="#263238"/>
        <path id="Path_197240" data-name="Path 197240" d="M267.645,132.264a.257.257,0,0,1-.245,0,1.868,1.868,0,0,0-1.693-.21.235.235,0,1,1-.187-.432,2.335,2.335,0,0,1,2.136.245.245.245,0,0,1,.07.327.268.268,0,0,1-.082.07Z" transform="translate(-190.615 -81.174)" fill="#263238"/>
        <path id="Path_197241" data-name="Path 197241" d="M261.05,134.691a.2.2,0,0,1-.14,0,.233.233,0,0,1-.21-.257,2.335,2.335,0,0,1,1.167-1.821.238.238,0,0,1,.222.42,1.809,1.809,0,0,0-.875,1.447A.233.233,0,0,1,261.05,134.691Z" transform="translate(-191.398 -80.987)" fill="#263238"/>
        <path id="Path_197242" data-name="Path 197242" d="M271.538,129.5s-2.953,3.047-5.836,2.895a7.133,7.133,0,0,0,2.09-1.447s-5.638,2.44-8.416,1.167-2.463-2.65-2.463-2.65.315.805,3.012.724c0,0-2.335-1.529-1.389-3.689a1.727,1.727,0,0,0,1.389.922,10.879,10.879,0,0,1,8.335-4.926c6.058-.689,7.284,1.7,7.552,3.5S271.538,129.5,271.538,129.5Z" transform="translate(-192.033 -82.695)" fill="#263238"/>
      </g>
      <g id="freepik--character-1--inject-113" transform="translate(140.119 130.72)">
        <rect id="Rectangle_23173" data-name="Rectangle 23173" width="85.586" height="21.782" rx="1.26" transform="translate(6.327 229.538)" fill="#ffc72f"/>
        <rect id="Rectangle_23174" data-name="Rectangle 23174" width="3.385" height="19.459" transform="translate(10.155 230.798)" opacity="0.2"/>
        <rect id="Rectangle_23175" data-name="Rectangle 23175" width="2.463" height="19.459" transform="translate(18.77 230.705)" opacity="0.2"/>
        <rect id="Rectangle_23176" data-name="Rectangle 23176" width="1.226" height="19.459" transform="translate(27.081 230.798)" opacity="0.2"/>
        <rect id="Rectangle_23177" data-name="Rectangle 23177" width="0.619" height="19.459" transform="translate(37.237 230.705)" opacity="0.2"/>
        <rect id="Rectangle_23178" data-name="Rectangle 23178" width="3.385" height="19.459" transform="translate(88.084 250.164) rotate(180)" opacity="0.2"/>
        <rect id="Rectangle_23179" data-name="Rectangle 23179" width="2.463" height="19.459" transform="translate(79.47 250.257) rotate(180)" opacity="0.2"/>
        <rect id="Rectangle_23180" data-name="Rectangle 23180" width="1.226" height="19.459" transform="translate(71.147 250.164) rotate(180)" opacity="0.2"/>
        <rect id="Rectangle_23181" data-name="Rectangle 23181" width="0.619" height="19.459" transform="translate(60.991 250.257) rotate(180)" opacity="0.2"/>
        <rect id="Rectangle_23182" data-name="Rectangle 23182" width="0.303" height="19.459" transform="translate(49.272 250.257) rotate(180)" opacity="0.2"/>
        <path id="Path_197243" data-name="Path 197243" d="M197.373,401.624H116.537a1.016,1.016,0,0,1-1.027-1.027h0a1.027,1.027,0,0,1,1.027-1.027h80.835A1.027,1.027,0,0,1,198.4,400.6h0a1.016,1.016,0,0,1-1.027,1.027Z" transform="translate(-107.747 -168.772)" fill="#fff" opacity="0.2"/>
        <rect id="Rectangle_23183" data-name="Rectangle 23183" width="85.586" height="21.782" rx="1.26" transform="translate(7.494 207.814)" fill="#ffc72f"/>
        <rect id="Rectangle_23184" data-name="Rectangle 23184" width="3.385" height="19.459" transform="translate(11.323 209.075)" opacity="0.2"/>
        <rect id="Rectangle_23185" data-name="Rectangle 23185" width="2.463" height="19.459" transform="translate(19.937 208.981)" opacity="0.2"/>
        <rect id="Rectangle_23186" data-name="Rectangle 23186" width="1.226" height="19.459" transform="translate(28.249 209.075)" opacity="0.2"/>
        <rect id="Rectangle_23187" data-name="Rectangle 23187" width="0.619" height="19.459" transform="translate(38.416 208.981)" opacity="0.2"/>
        <rect id="Rectangle_23188" data-name="Rectangle 23188" width="3.385" height="19.459" transform="translate(89.252 228.429) rotate(180)" opacity="0.2"/>
        <rect id="Rectangle_23189" data-name="Rectangle 23189" width="2.463" height="19.459" transform="translate(80.625 228.522) rotate(180)" opacity="0.2"/>
        <rect id="Rectangle_23190" data-name="Rectangle 23190" width="1.226" height="19.459" transform="translate(72.314 228.429) rotate(180)" opacity="0.2"/>
        <rect id="Rectangle_23191" data-name="Rectangle 23191" width="0.619" height="19.459" transform="translate(62.159 228.522) rotate(180)" opacity="0.2"/>
        <rect id="Rectangle_23192" data-name="Rectangle 23192" width="0.303" height="19.459" transform="translate(50.439 228.522) rotate(180)" opacity="0.2"/>
        <path id="Path_197244" data-name="Path 197244" d="M198.373,383.014H117.537a1.027,1.027,0,0,1-1.027-1.027h0a1.016,1.016,0,0,1,1.027-1.027h80.835a1.016,1.016,0,0,1,1.027,1.027h0A1.027,1.027,0,0,1,198.373,383.014Z" transform="translate(-107.58 -171.885)" fill="#fff" opacity="0.2"/>
        <rect id="Rectangle_23193" data-name="Rectangle 23193" width="85.586" height="21.782" rx="1.26" transform="translate(2.825 186.091)" fill="#ffc72f"/>
        <rect id="Rectangle_23194" data-name="Rectangle 23194" width="3.385" height="19.459" transform="translate(6.642 187.34)" opacity="0.2"/>
        <rect id="Rectangle_23195" data-name="Rectangle 23195" width="2.463" height="19.459" transform="translate(15.268 187.246)" opacity="0.2"/>
        <rect id="Rectangle_23196" data-name="Rectangle 23196" width="1.226" height="19.459" transform="translate(23.579 187.34)" opacity="0.2"/>
        <rect id="Rectangle_23197" data-name="Rectangle 23197" width="0.619" height="19.459" transform="translate(33.735 187.246)" opacity="0.2"/>
        <rect id="Rectangle_23198" data-name="Rectangle 23198" width="3.385" height="19.459" transform="translate(84.571 206.705) rotate(180)" opacity="0.2"/>
        <rect id="Rectangle_23199" data-name="Rectangle 23199" width="2.463" height="19.459" transform="translate(75.968 206.799) rotate(180)" opacity="0.2"/>
        <rect id="Rectangle_23200" data-name="Rectangle 23200" width="1.226" height="19.459" transform="translate(67.645 206.705) rotate(180)" opacity="0.2"/>
        <rect id="Rectangle_23201" data-name="Rectangle 23201" width="0.619" height="19.459" transform="translate(57.489 206.799) rotate(180)" opacity="0.2"/>
        <rect id="Rectangle_23202" data-name="Rectangle 23202" width="0.303" height="19.459" transform="translate(45.77 206.799) rotate(180)" opacity="0.2"/>
        <path id="Path_197245" data-name="Path 197245" d="M194.373,364.394H113.537a1.016,1.016,0,0,1-1.027-1.027h0a1.027,1.027,0,0,1,1.027-1.027h80.835a1.039,1.039,0,0,1,1.027,1.027h0A1.027,1.027,0,0,1,194.373,364.394Z" transform="translate(-108.249 -175)" fill="#fff" opacity="0.2"/>
        <path id="Path_197246" data-name="Path 197246" d="M144.69,349.159l-2.346,5.778-1.774,4.366-4.459-1.587,1.6-3.922,2.521-6.233Z" transform="translate(-104.301 -177.473)" fill="#e4897b"/>
        <path id="Path_197247" data-name="Path 197247" d="M226.3,323.894l-3.794,2.813-1.389-3.082L217.9,316.5l3.794-2.825,3.047,6.747Z" transform="translate(-90.618 -183.141)" fill="#e4897b"/>
        <path id="Path_197248" data-name="Path 197248" d="M140,347.56l4.459,1.6-2.346,5.778-4.634-1.144Z" transform="translate(-104.072 -177.473)" opacity="0.2"/>
        <path id="Path_197249" data-name="Path 197249" d="M224.74,320.427l-3.619,3.2L217.9,316.5l3.794-2.825Z" transform="translate(-90.618 -183.141)" opacity="0.2"/>
        <path id="Path_197250" data-name="Path 197250" d="M172.14,212c.128.362.42.584.654.5s.327-.444.2-.805-.42-.584-.654-.5A.593.593,0,0,0,172.14,212Z" transform="translate(-98.285 -200.29)" fill="#263238"/>
        <path id="Path_197251" data-name="Path 197251" d="M172.46,212.39a13.6,13.6,0,0,0,2.8,2.463,2.16,2.16,0,0,1-1.6.934Z" transform="translate(-98.22 -200.087)" fill="#de5753"/>
        <path id="Path_197252" data-name="Path 197252" d="M170.432,210.757a.292.292,0,0,1-.163,0,.222.222,0,0,1,0-.3,2.241,2.241,0,0,1,1.774-1,.233.233,0,0,1,.222.233.222.222,0,0,1-.233.222h0a1.751,1.751,0,0,0-1.4.805.257.257,0,0,1-.2.047Z" transform="translate(-98.597 -200.579)" fill="#263238"/>
        <path id="Path_197253" data-name="Path 197253" d="M165.185,216.92c.058,3.5-.385,9.875-3.175,11.731,0,0,.315,3.619,6.642,4.739,7,1.249,3.945-2.86,3.945-2.86-3.63-1.576-3.035-4.377-1.9-6.91Z" transform="translate(-99.968 -199.329)" fill="#e4897b"/>
        <path id="Path_197254" data-name="Path 197254" d="M161.707,216.134c1.821,4.319,2.673,7,5.708,8.428,4.552,2.218,9.338-1.728,8.79-6.5-.444-4.307-3.362-10.646-8.311-10.879a6.4,6.4,0,0,0-6.187,8.953Z" transform="translate(-100.109 -200.96)" fill="#e4897b"/>
        <path id="Path_197255" data-name="Path 197255" d="M165.5,223.724c2.054.829,8.51-3.794,6.3-9.117,0,0,2.206-3.56,1.412-7s-3.385-4.482-5.836-3.362c-2.171.98-1.938,2.206-1.938,2.206s-10.506,2.755-7.634,6.782C154.108,218.553,162.921,222.709,165.5,223.724Z" transform="translate(-100.821 -201.522)" fill="#263238"/>
        <path id="Path_197256" data-name="Path 197256" d="M168.218,214.445a5.347,5.347,0,0,0,2.276,2.533c1.354.735,2.136-.292,1.856-1.658s-1.249-3.093-2.65-3.268S167.681,213.161,168.218,214.445Z" transform="translate(-98.962 -200.146)" fill="#e4897b"/>
        <path id="Path_197257" data-name="Path 197257" d="M160.65,227.406c-.49-.981-1.027-2.1.163-2.4s9.642-.794,12.058,0c-.794,1.319.432,3,.432,3Z" transform="translate(-100.289 -198.049)" fill="#407bff"/>
        <path id="Path_197258" data-name="Path 197258" d="M160.65,227.406c-.49-.981-1.027-2.1.163-2.4s9.642-.794,12.058,0c-.794,1.319.432,3,.432,3Z" transform="translate(-100.289 -198.049)" fill="#fafafa" opacity="0.5"/>
        <path id="Path_197259" data-name="Path 197259" d="M141.123,356h-5.159a.408.408,0,0,0-.4.327l-.934,4.2a.677.677,0,0,0,.677.841c1.856,0,4.552-.14,6.887-.14,2.743,0,5.1.152,8.311.152,1.949,0,2.486-1.961,1.669-2.136-3.7-.817-6.712-.9-9.91-2.872a2.252,2.252,0,0,0-1.144-.374Z" transform="translate(-104.552 -176.061)" fill="#263238"/>
        <path id="Path_197260" data-name="Path 197260" d="M174.133,262.752s-1.471,9.91-3.257,21.3c-.782,4.879-1.623,10.027-2.451,14.79-.922,5.335-1.821,10.167-2.568,13.576-3.257,14.825-20.544,55.68-20.544,55.68l-8.463-1.833s12.093-31.786,14.79-52.528c2.089-15.91,6.187-51,6.187-51Z" transform="translate(-104.177 -191.663)" fill="#031728"/>
        <path id="Path_197261" data-name="Path 197261" d="M147.421,350.833l-1.576,3.058-9.525-2.066.794-2.825Z" transform="translate(-104.266 -177.232)" fill="#407bff"/>
        <path id="Path_197262" data-name="Path 197262" d="M147.421,350.833l-1.576,3.058-9.525-2.066.794-2.825Z" transform="translate(-104.266 -177.232)" opacity="0.3"/>
        <path id="Path_197263" data-name="Path 197263" d="M166.594,281.038c-.782,4.879-1.623,10.027-2.451,14.79-2.335-9.42-1.576-15.058-1.576-15.058Z" transform="translate(-99.895 -188.647)" opacity="0.2"/>
        <path id="Path_197264" data-name="Path 197264" d="M160.542,235.176c-2.276,2.148-4.669,4.424-6.84,6.7a93.186,93.186,0,0,0-6.233,7,32.372,32.372,0,0,0-2.253,3.782c-.724,1.412-1.459,2.848-2.16,4.319l-4.284,8.848-3.362-1.167c.724-3.28,1.646-6.478,2.65-9.689.525-1.6,1.086-3.2,1.7-4.8a31.751,31.751,0,0,1,2.393-4.961,63.091,63.091,0,0,1,6.373-8.171,86.148,86.148,0,0,1,7.237-7.214Z" transform="translate(-104.418 -197.169)" fill="#dc897c"/>
        <path id="Path_197265" data-name="Path 197265" d="M135.734,267.734l1.716-3.047-5.229-1.588a5.474,5.474,0,0,0,.093,4.436Z" transform="translate(-105.023 -191.603)" fill="#e4897b"/>
        <path id="Path_197266" data-name="Path 197266" d="M139.3,260.786l-3.35-1.086-3.794,3.969,5.229,1.587Z" transform="translate(-104.962 -192.172)" fill="#e4897b"/>
        <path id="Path_197267" data-name="Path 197267" d="M225.684,322.139l-4.261,3.163a.42.42,0,0,0-.128.5l1.751,3.934A.677.677,0,0,0,224.1,330c1.471-1.167,2.136-1.751,4-3.14,1.167-.852,3.829-2.731,5.428-3.91s.63-2.918-.128-2.568c-3.4,1.529-5.358,1.693-6.922,1.541A1.167,1.167,0,0,0,225.684,322.139Z" transform="translate(-90.056 -182.028)" fill="#263238"/>
        <path id="Path_197268" data-name="Path 197268" d="M156.811,227.381c-4.541-.28-11.241,9.537-11.241,9.537l6.607,9.023a19.459,19.459,0,0,0,7-7C162.321,233.638,161.445,227.673,156.811,227.381Z" transform="translate(-102.718 -197.58)" fill="#407bff"/>
        <path id="Path_197269" data-name="Path 197269" d="M156.811,227.381c-4.541-.28-11.241,9.537-11.241,9.537l6.607,9.023a19.459,19.459,0,0,0,7-7C162.321,233.638,161.445,227.673,156.811,227.381Z" transform="translate(-102.718 -197.58)" fill="#fafafa" opacity="0.6"/>
        <path id="Path_197270" data-name="Path 197270" d="M157.19,235.14c-2.977,1.6-4.961,5.533-6.21,9.093l.292.409a19.459,19.459,0,0,0,7-7c.187-.3.362-.63.525-.946Z" transform="translate(-101.813 -196.281)" opacity="0.2"/>
        <path id="Path_197271" data-name="Path 197271" d="M182.347,227.081s2.72,6.84-2.043,42.023H155.032c-.175-3.887,2.265-22.821-1.482-41.1a65.239,65.239,0,0,1,8.463-1.074c3.233-.152,14.008-2.335,16.856-2.066C182.616,225.19,182.347,227.081,182.347,227.081Z" transform="translate(-101.383 -198.004)" fill="#407bff"/>
        <path id="Path_197272" data-name="Path 197272" d="M182.943,242.6c-.3,6.222-1.062,14.79-2.638,26.5H155.032c-.175-3.887,2.265-22.821-1.482-41.1a65.231,65.231,0,0,1,8.463-1.074c3.233-.152,14.008-2.335,16.856-2.066,3.747.339,3.5,2.23,3.5,2.23s.572,1.436.724,6.373C183.153,235.709,183.141,238.686,182.943,242.6Z" transform="translate(-101.383 -198.005)" fill="#fafafa" opacity="0.6"/>
        <path id="Path_197273" data-name="Path 197273" d="M179.058,261l5,11.673s24.2,3.035,31.062,11.358,19.844,42.093,19.844,42.093l-6.467,5.5s-18.56-34.132-23.755-38.252-34.762-4.109-41.369-6.572-8.51-23.789-8.51-23.789Z" transform="translate(-101.164 -191.954)" fill="#031728"/>
        <path id="Path_197274" data-name="Path 197274" d="M216.76,321.807l7.8-5.977,1,1.926-7.471,5.895Z" transform="translate(-90.809 -182.781)" fill="#407bff"/>
        <path id="Path_197275" data-name="Path 197275" d="M216.76,321.807l7.8-5.977,1,1.926-7.471,5.895Z" transform="translate(-90.809 -182.781)" opacity="0.3"/>
        <path id="Path_197276" data-name="Path 197276" d="M174.13,209.529s-.292-6.934-3.957-7.167-6.549,3.082-6.549,3.082a3.805,3.805,0,0,0-2.953-1.424c-2.078-.117-5.7,3.42-5.7,3.42s4.517-2.778,6.42-1.506c0,0-5.124,1.424-6.42,4.669a11.673,11.673,0,0,1-2.685,4.4h2.685l-1.763,3s3.712,3.584,6.514,2.988l-.9,1.7s5.5,2.008,7.739,1.389.117-11.778.117-11.778Z" transform="translate(-101.594 -201.766)" fill="#263238"/>
        <path id="Path_197277" data-name="Path 197277" d="M179.377,241.526c-4.587-3.117-4.517-10.3-4.517-10.3l4.669,1.167C179.588,234.638,179.576,237.615,179.377,241.526Z" transform="translate(-97.818 -196.935)" opacity="0.2"/>
        <path id="Path_197278" data-name="Path 197278" d="M148.1,271.161l-31.179-5.241-8.066,24,5.159,9.373,34.038,4.482,6.9-26.147Z" transform="translate(-108.86 -191.131)" fill="#407bff"/>
        <path id="Path_197279" data-name="Path 197279" d="M108.86,289.92l2.008,3.654.455.805,2.7,4.914,34.038,4.482,6.9-26.147-2.93-2.755-.9-.852-3.012-2.86-31.19-5.241Z" transform="translate(-108.86 -191.131)" fill="#0f63ac" opacity="0.4"/>
        <path id="Path_197280" data-name="Path 197280" d="M153.8,277.628l-30.863-4.8-7.167-6.91,31.19,5.241Z" transform="translate(-107.704 -191.131)" fill="#fff" opacity="0.2"/>
        <path id="Path_197281" data-name="Path 197281" d="M124.093,272.83l-10.074,26.463-5.159-9.373,8.066-24Z" transform="translate(-108.86 -191.131)" fill="#fff" opacity="0.1"/>
        <path id="Path_197282" data-name="Path 197282" d="M110.58,293.125l.455.805,9.327-24.782,31.377,5.276-.9-.852L119.8,268.6Z" transform="translate(-108.572 -190.683)" fill="#263238"/>
        <path id="Path_197283" data-name="Path 197283" d="M138.172,272.043l-1.576-1.459-7.856-1.424,1.377,1.587Z" transform="translate(-105.534 -190.589)" fill="#263238"/>
        <path id="Path_197284" data-name="Path 197284" d="M141.776,273.75s.362-8.241.14-8.79-11.276-2.335-12.1-2.51-4.471,7.856-4.471,7.856l.63.969,2.089.28s2.65-6.922,2.918-7.1a81.879,81.879,0,0,1,9.012,1.471c.233.187-.677,6.478-.677,6.478l.712,1.027Z" transform="translate(-106.103 -191.712)" fill="#263238"/>
        <path id="Path_197285" data-name="Path 197285" d="M110.67,283.9l2.335,3,.222-.6,1.763-4.669.21-.56.374-1s-.665.747-1.576,1.6a9.829,9.829,0,0,1-3.327,2.229Z" transform="translate(-108.557 -188.764)" fill="#407bff"/>
        <path id="Path_197286" data-name="Path 197286" d="M111.32,283.977l1.739,2.183,1.763-4.669.21-.56A9.864,9.864,0,0,1,111.32,283.977Z" transform="translate(-108.448 -188.62)" fill="#fff" opacity="0.2"/>
        <path id="Path_197287" data-name="Path 197287" d="M113.47,281.654h.992l.584-1.564S114.38,280.8,113.47,281.654Z" transform="translate(-108.089 -188.761)" opacity="0.2"/>
        <path id="Path_197288" data-name="Path 197288" d="M110,278.488l-.432,4.226a9.665,9.665,0,0,1,5.58-.747l.222-.584,1.354-3.63.152-.374A13.645,13.645,0,0,0,110,278.488Z" transform="translate(-108.741 -189.225)" fill="#407bff"/>
        <path id="Path_197289" data-name="Path 197289" d="M113.74,272.633a16.2,16.2,0,0,0,3.175,4.272l.163-.444.42-1.167.7-1.926.339-.934.093-.269a17.764,17.764,0,0,1-1.447-2.7Z" transform="translate(-108.044 -190.537)" fill="#407bff"/>
        <path id="Path_197290" data-name="Path 197290" d="M119.86,267.753a8.451,8.451,0,0,1,.981,2.148l.49.082.677.105,1.086.2,1.039.175.362.058a6.7,6.7,0,0,0-1.7-4.389Z" transform="translate(-107.02 -191.096)" fill="#407bff"/>
        <path id="Path_197291" data-name="Path 197291" d="M120.42,267.792a10.412,10.412,0,0,1,.817,2.113l.677.105a.724.724,0,0,1-.082-.607.735.735,0,0,1,.934-.467.724.724,0,0,1,.467.922.747.747,0,0,1-.233.35l1.039.175a6.805,6.805,0,0,0-1.366-3.794Z" transform="translate(-106.926 -191.019)" fill="#fff" opacity="0.2"/>
        <path id="Path_197292" data-name="Path 197292" d="M110.218,278.6l-.268,3.42a13.832,13.832,0,0,1,5.358-.689l1.354-3.63a12.688,12.688,0,0,0-6.443.9Zm3.747-.28a.969.969,0,1,1-1.011.458.969.969,0,0,1,1.011-.458Z" transform="translate(-108.678 -189.175)" fill="#fff" opacity="0.2"/>
        <path id="Path_197293" data-name="Path 197293" d="M114.25,272.716a19.321,19.321,0,0,0,2.743,3.642l.42-1.167a.992.992,0,0,1-.56-1.261,1,1,0,0,1,1.167-.689h0l.339-.934a8.066,8.066,0,0,1-1.424-2.218Z" transform="translate(-107.958 -190.434)" fill="#fff" opacity="0.2"/>
        <path id="Path_197294" data-name="Path 197294" d="M203.73,208.29l1.8-3,3.969,3.759a5.487,5.487,0,0,1-3.9,2.113Z" transform="translate(-92.988 -201.274)" fill="#e4897b"/>
        <path id="Path_197295" data-name="Path 197295" d="M208.048,201.85l2.813,3.957-1.623,3.817-3.969-3.759Z" transform="translate(-92.731 -201.85)" fill="#e4897b"/>
        <path id="Path_197296" data-name="Path 197296" d="M177.12,228.366a97.718,97.718,0,0,0,9.572-2.475,38.407,38.407,0,0,0,8.661-3.782,6.693,6.693,0,0,0,.712-.514l.805-.747c.56-.537,1.167-1.167,1.693-1.728,1.109-1.237,2.253-2.51,3.35-3.817,2.253-2.591,4.447-5.288,6.712-7.914l2.953,1.961c-1.623,3.163-3.42,6.175-5.323,9.175-.969,1.482-1.961,2.977-3.058,4.436-.549.724-1.167,1.459-1.751,2.195-.3.362-.689.735-1.027,1.109a15.7,15.7,0,0,1-1.319,1.167,38.788,38.788,0,0,1-10.12,5.206,63.848,63.848,0,0,1-10.622,2.837Z" transform="translate(-97.44 -200.923)" fill="#dc897c"/>
        <path id="Path_197297" data-name="Path 197297" d="M176.434,236.061c4.914,4.261,15.712-3.047,15.712-3.047l-4.307-10.634a62.486,62.486,0,0,0-11.673,2.51C169.337,227.213,172.675,232.816,176.434,236.061Z" transform="translate(-98.26 -198.415)" fill="#407bff"/>
        <path id="Path_197298" data-name="Path 197298" d="M176.434,236.061c4.914,4.261,15.712-3.047,15.712-3.047l-4.307-10.634a62.486,62.486,0,0,0-11.673,2.51C169.337,227.213,172.675,232.816,176.434,236.061Z" transform="translate(-98.26 -198.415)" fill="#fafafa" opacity="0.6"/>
      </g>
    </g>
    <g id="Group_121904" data-name="Group 121904" transform="translate(1171.684 213.187)" opacity="0.475">
      <ellipse id="Ellipse_41684" data-name="Ellipse 41684" cx="3" cy="3.5" rx="3" ry="3.5" transform="translate(0.316 -0.188)" fill="#001646" opacity="0.597"/>
      <circle id="Ellipse_41688" data-name="Ellipse 41688" cx="3" cy="3" r="3" transform="translate(0.316 14.813)" fill="#001646" opacity="0.597"/>
      <ellipse id="Ellipse_41692" data-name="Ellipse 41692" cx="3" cy="3.5" rx="3" ry="3.5" transform="translate(0.316 29.813)" fill="#001646" opacity="0.597"/>
      <ellipse id="Ellipse_41685" data-name="Ellipse 41685" cx="3" cy="3.5" rx="3" ry="3.5" transform="translate(17.316 -0.188)" fill="#001646" opacity="0.597"/>
      <circle id="Ellipse_41689" data-name="Ellipse 41689" cx="3" cy="3" r="3" transform="translate(17.316 14.813)" fill="#001646" opacity="0.597"/>
      <ellipse id="Ellipse_41693" data-name="Ellipse 41693" cx="3" cy="3.5" rx="3" ry="3.5" transform="translate(17.316 29.813)" fill="#001646" opacity="0.597"/>
      <ellipse id="Ellipse_41686" data-name="Ellipse 41686" cx="3" cy="3.5" rx="3" ry="3.5" transform="translate(34.316 -0.188)" fill="#001646" opacity="0.597"/>
      <circle id="Ellipse_41690" data-name="Ellipse 41690" cx="3" cy="3" r="3" transform="translate(34.316 14.813)" fill="#001646" opacity="0.597"/>
      <ellipse id="Ellipse_41694" data-name="Ellipse 41694" cx="3" cy="3.5" rx="3" ry="3.5" transform="translate(34.316 29.813)" fill="#001646" opacity="0.597"/>
    </g>
    <g id="Group_121917" data-name="Group 121917" transform="translate(1191.814 333.443)">
      <g transform="matrix(1, 0, 0, 1, -540.31, -172.07)" filter="url(#Polygon_3)">
        <path id="Polygon_3-2" data-name="Polygon 3" d="M20.6,15.194a10,10,0,0,1,17.365,0L50.011,36.279a10,10,0,0,1-8.682,14.961h-24.1A10,10,0,0,1,8.549,36.279Z" transform="translate(561.97 172.07) rotate(25)" fill="url(#linear-gradient-2)"/>
      </g>
      <path id="Polygon_4" data-name="Polygon 4" d="M9.431,9.117a6,6,0,0,1,10.419,0l4.3,7.527a6,6,0,0,1-5.209,8.977h-8.6A6,6,0,0,1,5.13,16.643Z" transform="translate(27.576 21.942) rotate(25)" fill="#fff"/>
    </g>
    <g id="Group_121918" data-name="Group 121918" transform="translate(680.323 211.232)">
      <g transform="matrix(1, 0, 0, 1, -28.82, -49.86)" filter="url(#Path_197641)">
        <path id="Path_197641-3" data-name="Path 197641" d="M193.7,369.267l-14.924-25.85,14.924-25.85h29.848l14.925,25.85-14.925,25.85Z" transform="translate(-149.95 -267.7)" fill="url(#linear-gradient-3)"/>
      </g>
      <g transform="matrix(1, 0, 0, 1, -28.82, -49.86)" filter="url(#Path_197642)">
        <path id="Path_197642-3" data-name="Path 197642" d="M188.6,351.6l-9.825-17.017,9.825-17.017h19.65l9.825,17.017L208.251,351.6Z" transform="translate(-140.17 -258.87)" fill="#fff"/>
      </g>
    </g>
    <g id="Group_121920" data-name="Group 121920" transform="translate(670.912 427.232)">
      <g transform="matrix(1, 0, 0, 1, -19.41, -265.86)" filter="url(#Path_197641-2)">
        <path id="Path_197641-4" data-name="Path 197641" d="M201.962,397.885l-23.185-40.159,23.185-40.159h46.37l23.187,40.159-23.187,40.159Z" transform="translate(-159.36 -51.7)" fill="url(#linear-gradient-3)"/>
      </g>
      <g transform="matrix(1, 0, 0, 1, -19.41, -265.86)" filter="url(#Path_197642-2)">
        <path id="Path_197642-4" data-name="Path 197642" d="M194.04,370.441,178.777,344l15.263-26.437h30.526L239.83,344l-15.264,26.437Z" transform="translate(-144.17 -37.98)" fill="#fff"/>
      </g>
    </g>
  </g>
</svg>
